<svg width="478" height="33" viewBox="0 0 478 33" fill="none" xmlns="http://www.w3.org/2000/svg">
<rect width="478" height="33" rx="8" fill="#6E4B93"/>
<path d="M13.0827 25.5L13.9707 21.3H10.5147V18.54H14.5707L15.3147 15.036H11.7867V12.276H15.9147L16.8027 8.148H19.6827L18.7947 12.276H23.3547L24.2427 8.148H27.1227L26.2587 12.276H29.3787V15.036H25.6587L24.9147 18.54H28.1067V21.3H24.3147L23.4267 25.5H20.5227L21.4347 21.3H16.8747L15.9867 25.5H13.0827ZM17.4507 18.54H22.0107L22.7787 15.036H18.2187L17.4507 18.54ZM36.8751 25.5L30.7311 8.7H34.0191L38.7711 22.356L43.5471 8.7H46.7871L40.6431 25.5H36.8751ZM50.3683 11.748C49.8083 11.748 49.3443 11.58 48.9763 11.244C48.6243 10.908 48.4483 10.484 48.4483 9.972C48.4483 9.46 48.6243 9.044 48.9763 8.724C49.3443 8.388 49.8083 8.22 50.3683 8.22C50.9283 8.22 51.3843 8.388 51.7363 8.724C52.1043 9.044 52.2883 9.46 52.2883 9.972C52.2883 10.484 52.1043 10.908 51.7363 11.244C51.3843 11.58 50.9283 11.748 50.3683 11.748ZM48.8323 25.5V13.596H51.9043V25.5H48.8323ZM60.0308 25.788C58.9748 25.788 58.0468 25.62 57.2468 25.284C56.4468 24.932 55.8068 24.452 55.3268 23.844C54.8468 23.236 54.5588 22.532 54.4628 21.732H57.5588C57.6548 22.196 57.9108 22.596 58.3268 22.932C58.7588 23.252 59.3108 23.412 59.9828 23.412C60.6548 23.412 61.1428 23.276 61.4468 23.004C61.7668 22.732 61.9268 22.42 61.9268 22.068C61.9268 21.556 61.7028 21.212 61.2548 21.036C60.8068 20.844 60.1828 20.66 59.3828 20.484C58.8708 20.372 58.3508 20.236 57.8228 20.076C57.2948 19.916 56.8068 19.716 56.3588 19.476C55.9268 19.22 55.5748 18.9 55.3028 18.516C55.0308 18.116 54.8948 17.628 54.8948 17.052C54.8948 15.996 55.3108 15.108 56.1428 14.388C56.9908 13.668 58.1748 13.308 59.6948 13.308C61.1028 13.308 62.2228 13.636 63.0548 14.292C63.9028 14.948 64.4068 15.852 64.5668 17.004H61.6628C61.4868 16.124 60.8228 15.684 59.6708 15.684C59.0948 15.684 58.6468 15.796 58.3268 16.02C58.0228 16.244 57.8708 16.524 57.8708 16.86C57.8708 17.212 58.1028 17.492 58.5668 17.7C59.0308 17.908 59.6468 18.1 60.4148 18.276C61.2468 18.468 62.0068 18.684 62.6948 18.924C63.3988 19.148 63.9588 19.492 64.3748 19.956C64.7908 20.404 64.9988 21.052 64.9988 21.9C65.0148 22.636 64.8228 23.3 64.4228 23.892C64.0228 24.484 63.4468 24.948 62.6948 25.284C61.9428 25.62 61.0548 25.788 60.0308 25.788ZM72.1842 25.788C70.6962 25.788 69.5442 25.324 68.7282 24.396C67.9282 23.468 67.5282 22.108 67.5282 20.316V13.596H70.5762V20.028C70.5762 21.052 70.7842 21.836 71.2002 22.38C71.6162 22.924 72.2722 23.196 73.1682 23.196C74.0162 23.196 74.7122 22.892 75.2562 22.284C75.8162 21.676 76.0962 20.828 76.0962 19.74V13.596H79.1682V25.5H76.4562L76.2162 23.484C75.8482 24.188 75.3122 24.748 74.6082 25.164C73.9202 25.58 73.1122 25.788 72.1842 25.788ZM86.4257 25.788C85.4017 25.788 84.5617 25.628 83.9057 25.308C83.2497 24.972 82.7617 24.532 82.4417 23.988C82.1217 23.444 81.9617 22.844 81.9617 22.188C81.9617 21.084 82.3937 20.188 83.2577 19.5C84.1217 18.812 85.4177 18.468 87.1457 18.468H90.1697V18.18C90.1697 17.364 89.9377 16.764 89.4737 16.38C89.0097 15.996 88.4337 15.804 87.7457 15.804C87.1217 15.804 86.5777 15.956 86.1137 16.26C85.6497 16.548 85.3617 16.98 85.2497 17.556H82.2497C82.3297 16.692 82.6177 15.94 83.1137 15.3C83.6257 14.66 84.2817 14.172 85.0817 13.836C85.8817 13.484 86.7777 13.308 87.7697 13.308C89.4657 13.308 90.8017 13.732 91.7777 14.58C92.7537 15.428 93.2417 16.628 93.2417 18.18V25.5H90.6257L90.3377 23.58C89.9857 24.22 89.4897 24.748 88.8497 25.164C88.2257 25.58 87.4177 25.788 86.4257 25.788ZM87.1217 23.388C88.0017 23.388 88.6817 23.1 89.1617 22.524C89.6577 21.948 89.9697 21.236 90.0977 20.388H87.4817C86.6657 20.388 86.0817 20.54 85.7297 20.844C85.3777 21.132 85.2017 21.492 85.2017 21.924C85.2017 22.388 85.3777 22.748 85.7297 23.004C86.0817 23.26 86.5457 23.388 87.1217 23.388ZM96.1733 25.5V8.22H99.2453V25.5H96.1733ZM104.04 11.748C103.48 11.748 103.016 11.58 102.648 11.244C102.296 10.908 102.12 10.484 102.12 9.972C102.12 9.46 102.296 9.044 102.648 8.724C103.016 8.388 103.48 8.22 104.04 8.22C104.6 8.22 105.056 8.388 105.408 8.724C105.776 9.044 105.96 9.46 105.96 9.972C105.96 10.484 105.776 10.908 105.408 11.244C105.056 11.58 104.6 11.748 104.04 11.748ZM102.504 25.5V13.596H105.576V25.5H102.504ZM108.015 25.5V23.028L114.087 16.14H108.087V13.596H117.591V16.068L111.423 22.956H117.711V25.5H108.015ZM126.051 25.788C124.851 25.788 123.787 25.532 122.859 25.02C121.931 24.508 121.203 23.788 120.675 22.86C120.147 21.932 119.883 20.86 119.883 19.644C119.883 18.412 120.139 17.316 120.651 16.356C121.179 15.396 121.899 14.652 122.811 14.124C123.739 13.58 124.827 13.308 126.075 13.308C127.243 13.308 128.275 13.564 129.171 14.076C130.067 14.588 130.763 15.292 131.259 16.188C131.771 17.068 132.027 18.052 132.027 19.14C132.027 19.316 132.019 19.5 132.003 19.692C132.003 19.884 131.995 20.084 131.979 20.292H122.931C122.995 21.22 123.315 21.948 123.891 22.476C124.483 23.004 125.195 23.268 126.027 23.268C126.651 23.268 127.171 23.132 127.587 22.86C128.019 22.572 128.339 22.204 128.547 21.756H131.667C131.443 22.508 131.067 23.196 130.539 23.82C130.027 24.428 129.387 24.908 128.619 25.26C127.867 25.612 127.011 25.788 126.051 25.788ZM126.075 15.804C125.323 15.804 124.659 16.02 124.083 16.452C123.507 16.868 123.139 17.508 122.979 18.372H128.907C128.859 17.588 128.571 16.964 128.043 16.5C127.515 16.036 126.859 15.804 126.075 15.804ZM145.634 25.5C144.386 25.5 143.386 25.196 142.634 24.588C141.882 23.98 141.506 22.9 141.506 21.348V16.164H139.466V13.596H141.506L141.866 10.404H144.578V13.596H147.794V16.164H144.578V21.372C144.578 21.948 144.698 22.348 144.938 22.572C145.194 22.78 145.626 22.884 146.234 22.884H147.722V25.5H145.634ZM150.431 25.5V8.22H153.503V15.42C153.903 14.764 154.439 14.252 155.111 13.884C155.799 13.5 156.583 13.308 157.463 13.308C158.935 13.308 160.071 13.772 160.871 14.7C161.687 15.628 162.095 16.988 162.095 18.78V25.5H159.047V19.068C159.047 18.044 158.839 17.26 158.423 16.716C158.023 16.172 157.383 15.9 156.503 15.9C155.639 15.9 154.919 16.204 154.343 16.812C153.783 17.42 153.503 18.268 153.503 19.356V25.5H150.431ZM170.817 25.788C169.617 25.788 168.553 25.532 167.625 25.02C166.697 24.508 165.969 23.788 165.441 22.86C164.913 21.932 164.649 20.86 164.649 19.644C164.649 18.412 164.905 17.316 165.417 16.356C165.945 15.396 166.665 14.652 167.577 14.124C168.505 13.58 169.593 13.308 170.841 13.308C172.009 13.308 173.041 13.564 173.937 14.076C174.833 14.588 175.529 15.292 176.025 16.188C176.537 17.068 176.793 18.052 176.793 19.14C176.793 19.316 176.785 19.5 176.769 19.692C176.769 19.884 176.761 20.084 176.745 20.292H167.697C167.761 21.22 168.081 21.948 168.657 22.476C169.249 23.004 169.961 23.268 170.793 23.268C171.417 23.268 171.937 23.132 172.353 22.86C172.785 22.572 173.105 22.204 173.313 21.756H176.433C176.209 22.508 175.833 23.196 175.305 23.82C174.793 24.428 174.153 24.908 173.385 25.26C172.633 25.612 171.777 25.788 170.817 25.788ZM170.841 15.804C170.089 15.804 169.425 16.02 168.849 16.452C168.273 16.868 167.905 17.508 167.745 18.372H173.673C173.625 17.588 173.337 16.964 172.809 16.5C172.281 16.036 171.625 15.804 170.841 15.804ZM185.095 25.5V13.596H187.807L188.071 15.204C188.455 14.628 188.959 14.172 189.583 13.836C190.223 13.484 190.959 13.308 191.791 13.308C193.631 13.308 194.935 14.02 195.703 15.444C196.135 14.788 196.711 14.268 197.431 13.884C198.167 13.5 198.967 13.308 199.831 13.308C201.383 13.308 202.575 13.772 203.407 14.7C204.239 15.628 204.655 16.988 204.655 18.78V25.5H201.583V19.068C201.583 18.044 201.383 17.26 200.983 16.716C200.599 16.172 199.999 15.9 199.183 15.9C198.351 15.9 197.679 16.204 197.167 16.812C196.671 17.42 196.423 18.268 196.423 19.356V25.5H193.351V19.068C193.351 18.044 193.151 17.26 192.751 16.716C192.351 16.172 191.735 15.9 190.903 15.9C190.087 15.9 189.423 16.204 188.911 16.812C188.415 17.42 188.167 18.268 188.167 19.356V25.5H185.095ZM211.676 25.788C210.652 25.788 209.812 25.628 209.156 25.308C208.5 24.972 208.012 24.532 207.692 23.988C207.372 23.444 207.212 22.844 207.212 22.188C207.212 21.084 207.644 20.188 208.508 19.5C209.372 18.812 210.668 18.468 212.396 18.468H215.42V18.18C215.42 17.364 215.188 16.764 214.724 16.38C214.26 15.996 213.684 15.804 212.996 15.804C212.372 15.804 211.828 15.956 211.364 16.26C210.9 16.548 210.612 16.98 210.5 17.556H207.5C207.58 16.692 207.868 15.94 208.364 15.3C208.876 14.66 209.532 14.172 210.332 13.836C211.132 13.484 212.028 13.308 213.02 13.308C214.716 13.308 216.052 13.732 217.028 14.58C218.004 15.428 218.492 16.628 218.492 18.18V25.5H215.876L215.588 23.58C215.236 24.22 214.74 24.748 214.1 25.164C213.476 25.58 212.668 25.788 211.676 25.788ZM212.372 23.388C213.252 23.388 213.932 23.1 214.412 22.524C214.908 21.948 215.22 21.236 215.348 20.388H212.732C211.916 20.388 211.332 20.54 210.98 20.844C210.628 21.132 210.452 21.492 210.452 21.924C210.452 22.388 210.628 22.748 210.98 23.004C211.332 23.26 211.796 23.388 212.372 23.388ZM223.079 11.748C222.519 11.748 222.055 11.58 221.687 11.244C221.335 10.908 221.159 10.484 221.159 9.972C221.159 9.46 221.335 9.044 221.687 8.724C222.055 8.388 222.519 8.22 223.079 8.22C223.639 8.22 224.095 8.388 224.447 8.724C224.815 9.044 224.999 9.46 224.999 9.972C224.999 10.484 224.815 10.908 224.447 11.244C224.095 11.58 223.639 11.748 223.079 11.748ZM221.543 25.5V13.596H224.615V25.5H221.543ZM227.822 25.5V13.596H230.534L230.774 15.612C231.142 14.908 231.67 14.348 232.358 13.932C233.062 13.516 233.886 13.308 234.83 13.308C236.302 13.308 237.446 13.772 238.262 14.7C239.078 15.628 239.486 16.988 239.486 18.78V25.5H236.414V19.068C236.414 18.044 236.206 17.26 235.79 16.716C235.374 16.172 234.726 15.9 233.846 15.9C232.982 15.9 232.27 16.204 231.71 16.812C231.166 17.42 230.894 18.268 230.894 19.356V25.5H227.822ZM248.694 25.5V16.164H247.062V13.596H248.694V12.204C248.694 10.764 249.054 9.74 249.774 9.132C250.51 8.524 251.502 8.22 252.75 8.22H254.07V10.836H253.23C252.702 10.836 252.326 10.94 252.102 11.148C251.878 11.356 251.766 11.708 251.766 12.204V13.596H254.334V16.164H251.766V25.5H248.694ZM262.082 25.788C260.882 25.788 259.818 25.532 258.89 25.02C257.962 24.508 257.234 23.788 256.706 22.86C256.178 21.932 255.914 20.86 255.914 19.644C255.914 18.412 256.17 17.316 256.682 16.356C257.21 15.396 257.93 14.652 258.842 14.124C259.77 13.58 260.858 13.308 262.106 13.308C263.274 13.308 264.306 13.564 265.202 14.076C266.098 14.588 266.794 15.292 267.29 16.188C267.802 17.068 268.058 18.052 268.058 19.14C268.058 19.316 268.05 19.5 268.034 19.692C268.034 19.884 268.026 20.084 268.01 20.292H258.962C259.026 21.22 259.346 21.948 259.922 22.476C260.514 23.004 261.226 23.268 262.058 23.268C262.682 23.268 263.202 23.132 263.618 22.86C264.05 22.572 264.37 22.204 264.578 21.756H267.698C267.474 22.508 267.098 23.196 266.57 23.82C266.058 24.428 265.418 24.908 264.65 25.26C263.898 25.612 263.042 25.788 262.082 25.788ZM262.106 15.804C261.354 15.804 260.69 16.02 260.114 16.452C259.538 16.868 259.17 17.508 259.01 18.372H264.938C264.89 17.588 264.602 16.964 264.074 16.5C263.546 16.036 262.89 15.804 262.106 15.804ZM274.746 25.788C273.722 25.788 272.882 25.628 272.226 25.308C271.57 24.972 271.082 24.532 270.762 23.988C270.442 23.444 270.282 22.844 270.282 22.188C270.282 21.084 270.714 20.188 271.578 19.5C272.442 18.812 273.738 18.468 275.466 18.468H278.49V18.18C278.49 17.364 278.258 16.764 277.794 16.38C277.33 15.996 276.754 15.804 276.066 15.804C275.442 15.804 274.898 15.956 274.434 16.26C273.97 16.548 273.682 16.98 273.57 17.556H270.57C270.65 16.692 270.938 15.94 271.434 15.3C271.946 14.66 272.602 14.172 273.402 13.836C274.202 13.484 275.098 13.308 276.09 13.308C277.786 13.308 279.122 13.732 280.098 14.58C281.074 15.428 281.562 16.628 281.562 18.18V25.5H278.946L278.658 23.58C278.306 24.22 277.81 24.748 277.17 25.164C276.546 25.58 275.738 25.788 274.746 25.788ZM275.442 23.388C276.322 23.388 277.002 23.1 277.482 22.524C277.978 21.948 278.29 21.236 278.418 20.388H275.802C274.986 20.388 274.402 20.54 274.05 20.844C273.698 21.132 273.522 21.492 273.522 21.924C273.522 22.388 273.698 22.748 274.05 23.004C274.402 23.26 274.866 23.388 275.442 23.388ZM289.634 25.5C288.386 25.5 287.386 25.196 286.634 24.588C285.882 23.98 285.506 22.9 285.506 21.348V16.164H283.466V13.596H285.506L285.866 10.404H288.578V13.596H291.794V16.164H288.578V21.372C288.578 21.948 288.698 22.348 288.938 22.572C289.194 22.78 289.626 22.884 290.234 22.884H291.722V25.5H289.634ZM298.895 25.788C297.407 25.788 296.255 25.324 295.439 24.396C294.639 23.468 294.239 22.108 294.239 20.316V13.596H297.287V20.028C297.287 21.052 297.495 21.836 297.911 22.38C298.327 22.924 298.983 23.196 299.879 23.196C300.727 23.196 301.423 22.892 301.967 22.284C302.527 21.676 302.807 20.828 302.807 19.74V13.596H305.879V25.5H303.167L302.927 23.484C302.559 24.188 302.023 24.748 301.319 25.164C300.631 25.58 299.823 25.788 298.895 25.788ZM309.033 25.5V13.596H311.769L312.057 15.828C312.489 15.06 313.073 14.452 313.809 14.004C314.561 13.54 315.441 13.308 316.449 13.308V16.548H315.585C314.913 16.548 314.313 16.652 313.785 16.86C313.257 17.068 312.841 17.428 312.537 17.94C312.249 18.452 312.105 19.164 312.105 20.076V25.5H309.033ZM324.121 25.788C322.921 25.788 321.857 25.532 320.929 25.02C320.001 24.508 319.273 23.788 318.745 22.86C318.217 21.932 317.953 20.86 317.953 19.644C317.953 18.412 318.209 17.316 318.721 16.356C319.249 15.396 319.969 14.652 320.881 14.124C321.809 13.58 322.897 13.308 324.145 13.308C325.313 13.308 326.345 13.564 327.241 14.076C328.137 14.588 328.833 15.292 329.329 16.188C329.841 17.068 330.097 18.052 330.097 19.14C330.097 19.316 330.089 19.5 330.073 19.692C330.073 19.884 330.065 20.084 330.049 20.292H321.001C321.065 21.22 321.385 21.948 321.961 22.476C322.553 23.004 323.265 23.268 324.097 23.268C324.721 23.268 325.241 23.132 325.657 22.86C326.089 22.572 326.409 22.204 326.617 21.756H329.737C329.513 22.508 329.137 23.196 328.609 23.82C328.097 24.428 327.457 24.908 326.689 25.26C325.937 25.612 325.081 25.788 324.121 25.788ZM324.145 15.804C323.393 15.804 322.729 16.02 322.153 16.452C321.577 16.868 321.209 17.508 321.049 18.372H326.977C326.929 17.588 326.641 16.964 326.113 16.5C325.585 16.036 324.929 15.804 324.145 15.804ZM337.601 25.788C336.545 25.788 335.617 25.62 334.817 25.284C334.017 24.932 333.377 24.452 332.897 23.844C332.417 23.236 332.129 22.532 332.033 21.732H335.129C335.225 22.196 335.481 22.596 335.897 22.932C336.329 23.252 336.881 23.412 337.553 23.412C338.225 23.412 338.713 23.276 339.017 23.004C339.337 22.732 339.497 22.42 339.497 22.068C339.497 21.556 339.273 21.212 338.825 21.036C338.377 20.844 337.753 20.66 336.953 20.484C336.441 20.372 335.921 20.236 335.393 20.076C334.865 19.916 334.377 19.716 333.929 19.476C333.497 19.22 333.145 18.9 332.873 18.516C332.601 18.116 332.465 17.628 332.465 17.052C332.465 15.996 332.881 15.108 333.713 14.388C334.561 13.668 335.745 13.308 337.265 13.308C338.673 13.308 339.793 13.636 340.625 14.292C341.473 14.948 341.977 15.852 342.137 17.004H339.233C339.057 16.124 338.393 15.684 337.241 15.684C336.665 15.684 336.217 15.796 335.897 16.02C335.593 16.244 335.441 16.524 335.441 16.86C335.441 17.212 335.673 17.492 336.137 17.7C336.601 17.908 337.217 18.1 337.985 18.276C338.817 18.468 339.577 18.684 340.265 18.924C340.969 19.148 341.529 19.492 341.945 19.956C342.361 20.404 342.569 21.052 342.569 21.9C342.585 22.636 342.393 23.3 341.993 23.892C341.593 24.484 341.017 24.948 340.265 25.284C339.513 25.62 338.625 25.788 337.601 25.788ZM356.721 25.788C355.569 25.788 354.529 25.524 353.601 24.996C352.689 24.468 351.961 23.74 351.417 22.812C350.889 21.868 350.625 20.78 350.625 19.548C350.625 18.316 350.897 17.236 351.441 16.308C351.985 15.364 352.713 14.628 353.625 14.1C354.553 13.572 355.593 13.308 356.745 13.308C357.881 13.308 358.905 13.572 359.817 14.1C360.745 14.628 361.473 15.364 362.001 16.308C362.545 17.236 362.817 18.316 362.817 19.548C362.817 20.78 362.545 21.868 362.001 22.812C361.473 23.74 360.745 24.468 359.817 24.996C358.889 25.524 357.857 25.788 356.721 25.788ZM356.721 23.124C357.521 23.124 358.217 22.828 358.809 22.236C359.401 21.628 359.697 20.732 359.697 19.548C359.697 18.364 359.401 17.476 358.809 16.884C358.217 16.276 357.529 15.972 356.745 15.972C355.929 15.972 355.225 16.276 354.633 16.884C354.057 17.476 353.769 18.364 353.769 19.548C353.769 20.732 354.057 21.628 354.633 22.236C355.225 22.828 355.921 23.124 356.721 23.124ZM366.116 25.5V16.164H364.484V13.596H366.116V12.204C366.116 10.764 366.476 9.74 367.196 9.132C367.932 8.524 368.924 8.22 370.172 8.22H371.492V10.836H370.652C370.124 10.836 369.748 10.94 369.524 11.148C369.3 11.356 369.188 11.708 369.188 12.204V13.596H371.756V16.164H369.188V25.5H366.116ZM385.212 25.5C383.964 25.5 382.964 25.196 382.212 24.588C381.46 23.98 381.084 22.9 381.084 21.348V16.164H379.044V13.596H381.084L381.444 10.404H384.156V13.596H387.372V16.164H384.156V21.372C384.156 21.948 384.276 22.348 384.516 22.572C384.772 22.78 385.204 22.884 385.812 22.884H387.3V25.5H385.212ZM390.009 25.5V8.22H393.081V15.42C393.481 14.764 394.017 14.252 394.689 13.884C395.377 13.5 396.161 13.308 397.041 13.308C398.513 13.308 399.649 13.772 400.449 14.7C401.265 15.628 401.673 16.988 401.673 18.78V25.5H398.625V19.068C398.625 18.044 398.417 17.26 398.001 16.716C397.601 16.172 396.961 15.9 396.081 15.9C395.217 15.9 394.497 16.204 393.921 16.812C393.361 17.42 393.081 18.268 393.081 19.356V25.5H390.009ZM410.395 25.788C409.195 25.788 408.131 25.532 407.203 25.02C406.275 24.508 405.547 23.788 405.019 22.86C404.491 21.932 404.227 20.86 404.227 19.644C404.227 18.412 404.483 17.316 404.995 16.356C405.523 15.396 406.243 14.652 407.155 14.124C408.083 13.58 409.171 13.308 410.419 13.308C411.587 13.308 412.619 13.564 413.515 14.076C414.411 14.588 415.107 15.292 415.603 16.188C416.115 17.068 416.371 18.052 416.371 19.14C416.371 19.316 416.363 19.5 416.347 19.692C416.347 19.884 416.339 20.084 416.323 20.292H407.275C407.339 21.22 407.659 21.948 408.235 22.476C408.827 23.004 409.539 23.268 410.371 23.268C410.995 23.268 411.515 23.132 411.931 22.86C412.363 22.572 412.683 22.204 412.891 21.756H416.011C415.787 22.508 415.411 23.196 414.883 23.82C414.371 24.428 413.731 24.908 412.963 25.26C412.211 25.612 411.355 25.788 410.395 25.788ZM410.419 15.804C409.667 15.804 409.003 16.02 408.427 16.452C407.851 16.868 407.483 17.508 407.323 18.372H413.251C413.203 17.588 412.915 16.964 412.387 16.5C411.859 16.036 411.203 15.804 410.419 15.804ZM428.777 25.788C427.753 25.788 426.913 25.628 426.257 25.308C425.601 24.972 425.113 24.532 424.793 23.988C424.473 23.444 424.313 22.844 424.313 22.188C424.313 21.084 424.745 20.188 425.609 19.5C426.473 18.812 427.769 18.468 429.497 18.468H432.521V18.18C432.521 17.364 432.289 16.764 431.825 16.38C431.361 15.996 430.785 15.804 430.097 15.804C429.473 15.804 428.929 15.956 428.465 16.26C428.001 16.548 427.713 16.98 427.601 17.556H424.601C424.681 16.692 424.969 15.94 425.465 15.3C425.977 14.66 426.633 14.172 427.433 13.836C428.233 13.484 429.129 13.308 430.121 13.308C431.817 13.308 433.153 13.732 434.129 14.58C435.105 15.428 435.593 16.628 435.593 18.18V25.5H432.977L432.689 23.58C432.337 24.22 431.841 24.748 431.201 25.164C430.577 25.58 429.769 25.788 428.777 25.788ZM429.473 23.388C430.353 23.388 431.033 23.1 431.513 22.524C432.009 21.948 432.321 21.236 432.449 20.388H429.833C429.017 20.388 428.433 20.54 428.081 20.844C427.729 21.132 427.553 21.492 427.553 21.924C427.553 22.388 427.729 22.748 428.081 23.004C428.433 23.26 428.897 23.388 429.473 23.388ZM438.525 30.78V13.596H441.261L441.597 15.3C441.981 14.772 442.485 14.308 443.109 13.908C443.749 13.508 444.573 13.308 445.581 13.308C446.701 13.308 447.701 13.58 448.581 14.124C449.461 14.668 450.157 15.412 450.669 16.356C451.181 17.3 451.437 18.372 451.437 19.572C451.437 20.772 451.181 21.844 450.669 22.788C450.157 23.716 449.461 24.452 448.581 24.996C447.701 25.524 446.701 25.788 445.581 25.788C444.685 25.788 443.901 25.62 443.229 25.284C442.557 24.948 442.013 24.476 441.597 23.868V30.78H438.525ZM444.933 23.1C445.909 23.1 446.717 22.772 447.357 22.116C447.997 21.46 448.317 20.612 448.317 19.572C448.317 18.532 447.997 17.676 447.357 17.004C446.717 16.332 445.909 15.996 444.933 15.996C443.941 15.996 443.125 16.332 442.485 17.004C441.861 17.66 441.549 18.508 441.549 19.548C441.549 20.588 441.861 21.444 442.485 22.116C443.125 22.772 443.941 23.1 444.933 23.1ZM454.181 30.78V13.596H456.917L457.253 15.3C457.637 14.772 458.141 14.308 458.765 13.908C459.405 13.508 460.229 13.308 461.237 13.308C462.357 13.308 463.357 13.58 464.237 14.124C465.117 14.668 465.813 15.412 466.325 16.356C466.837 17.3 467.093 18.372 467.093 19.572C467.093 20.772 466.837 21.844 466.325 22.788C465.813 23.716 465.117 24.452 464.237 24.996C463.357 25.524 462.357 25.788 461.237 25.788C460.341 25.788 459.557 25.62 458.885 25.284C458.213 24.948 457.669 24.476 457.253 23.868V30.78H454.181ZM460.589 23.1C461.565 23.1 462.373 22.772 463.013 22.116C463.653 21.46 463.973 20.612 463.973 19.572C463.973 18.532 463.653 17.676 463.013 17.004C462.373 16.332 461.565 15.996 460.589 15.996C459.597 15.996 458.781 16.332 458.141 17.004C457.517 17.66 457.205 18.508 457.205 19.548C457.205 20.588 457.517 21.444 458.141 22.116C458.781 22.772 459.597 23.1 460.589 23.1Z" fill="white"/>
</svg>
