<svg width="369" height="33" viewBox="0 0 369 33" fill="none" xmlns="http://www.w3.org/2000/svg">
<rect width="369" height="33" rx="8" fill="#6E4B93"/>
<path d="M15.3991 25.5L16.2871 21.3H12.8311V18.54H16.8871L17.6311 15.036H14.1031V12.276H18.2311L19.1191 8.148H21.9991L21.1111 12.276H25.6711L26.5591 8.148H29.4391L28.5751 12.276H31.6951V15.036H27.9751L27.2311 18.54H30.4231V21.3H26.6311L25.7431 25.5H22.8391L23.7511 21.3H19.1911L18.3031 25.5H15.3991ZM19.7671 18.54H24.3271L25.0951 15.036H20.5351L19.7671 18.54ZM34.3195 25.5V8.7H45.2875V11.172H37.3915V15.78H44.5675V18.18H37.3915V23.028H45.2875V25.5H34.3195ZM48.1225 25.5V13.596H50.8345L51.0745 15.612C51.4425 14.908 51.9705 14.348 52.6585 13.932C53.3625 13.516 54.1865 13.308 55.1305 13.308C56.6025 13.308 57.7465 13.772 58.5625 14.7C59.3785 15.628 59.7865 16.988 59.7865 18.78V25.5H56.7145V19.068C56.7145 18.044 56.5065 17.26 56.0905 16.716C55.6745 16.172 55.0265 15.9 54.1465 15.9C53.2825 15.9 52.5705 16.204 52.0105 16.812C51.4665 17.42 51.1945 18.268 51.1945 19.356V25.5H48.1225ZM67.7641 21.948C67.1881 21.948 66.6521 21.884 66.1561 21.756L65.2681 22.644C65.5401 22.788 65.9081 22.908 66.3721 23.004C66.8361 23.1 67.5881 23.196 68.6281 23.292C70.2121 23.436 71.3641 23.812 72.0841 24.42C72.8041 25.028 73.1641 25.868 73.1641 26.94C73.1641 27.644 72.9721 28.308 72.5881 28.932C72.2041 29.572 71.6121 30.084 70.8121 30.468C70.0121 30.868 68.9881 31.068 67.7401 31.068C66.0441 31.068 64.6761 30.748 63.6361 30.108C62.5961 29.484 62.0761 28.54 62.0761 27.276C62.0761 26.204 62.5961 25.276 63.6361 24.492C63.3161 24.348 63.0361 24.196 62.7961 24.036C62.5721 23.876 62.3721 23.708 62.1961 23.532V22.98L64.2841 20.772C63.3561 19.956 62.8921 18.908 62.8921 17.628C62.8921 16.828 63.0841 16.1 63.4681 15.444C63.8681 14.788 64.4281 14.268 65.1481 13.884C65.8681 13.5 66.7401 13.308 67.7641 13.308C68.4361 13.308 69.0601 13.404 69.6361 13.596H74.1481V15.468L72.1081 15.612C72.4281 16.22 72.5881 16.892 72.5881 17.628C72.5881 18.428 72.3961 19.156 72.0121 19.812C71.6281 20.468 71.0681 20.988 70.3321 21.372C69.6121 21.756 68.7561 21.948 67.7641 21.948ZM67.7641 19.596C68.3881 19.596 68.9001 19.428 69.3001 19.092C69.7161 18.756 69.9241 18.276 69.9241 17.652C69.9241 17.028 69.7161 16.548 69.3001 16.212C68.9001 15.876 68.3881 15.708 67.7641 15.708C67.1081 15.708 66.5801 15.876 66.1801 16.212C65.7801 16.548 65.5801 17.028 65.5801 17.652C65.5801 18.276 65.7801 18.756 66.1801 19.092C66.5801 19.428 67.1081 19.596 67.7641 19.596ZM64.8841 26.964C64.8841 27.556 65.1561 27.996 65.7001 28.284C66.2601 28.588 66.9401 28.74 67.7401 28.74C68.5081 28.74 69.1321 28.58 69.6121 28.26C70.0921 27.956 70.3321 27.54 70.3321 27.012C70.3321 26.58 70.1721 26.22 69.8521 25.932C69.5481 25.644 68.9321 25.468 68.0041 25.404C67.3481 25.356 66.7401 25.284 66.1801 25.188C65.7161 25.444 65.3801 25.724 65.1721 26.028C64.9801 26.332 64.8841 26.644 64.8841 26.964ZM80.4921 25.788C79.4681 25.788 78.6281 25.628 77.9721 25.308C77.3161 24.972 76.8281 24.532 76.5081 23.988C76.1881 23.444 76.0281 22.844 76.0281 22.188C76.0281 21.084 76.4601 20.188 77.3241 19.5C78.1881 18.812 79.4841 18.468 81.2121 18.468H84.2361V18.18C84.2361 17.364 84.0041 16.764 83.5401 16.38C83.0761 15.996 82.5001 15.804 81.8121 15.804C81.1881 15.804 80.6441 15.956 80.1801 16.26C79.7161 16.548 79.4281 16.98 79.3161 17.556H76.3161C76.3961 16.692 76.6841 15.94 77.1801 15.3C77.6921 14.66 78.3481 14.172 79.1481 13.836C79.9481 13.484 80.8441 13.308 81.8361 13.308C83.5321 13.308 84.8681 13.732 85.8441 14.58C86.8201 15.428 87.3081 16.628 87.3081 18.18V25.5H84.6921L84.4041 23.58C84.0521 24.22 83.5561 24.748 82.9161 25.164C82.2921 25.58 81.4841 25.788 80.4921 25.788ZM81.1881 23.388C82.0681 23.388 82.7481 23.1 83.2281 22.524C83.7241 21.948 84.0361 21.236 84.1641 20.388H81.5481C80.7321 20.388 80.1481 20.54 79.7961 20.844C79.4441 21.132 79.2681 21.492 79.2681 21.924C79.2681 22.388 79.4441 22.748 79.7961 23.004C80.1481 23.26 80.6121 23.388 81.1881 23.388ZM95.2797 21.948C94.7037 21.948 94.1677 21.884 93.6717 21.756L92.7837 22.644C93.0557 22.788 93.4237 22.908 93.8877 23.004C94.3517 23.1 95.1037 23.196 96.1437 23.292C97.7277 23.436 98.8797 23.812 99.5997 24.42C100.32 25.028 100.68 25.868 100.68 26.94C100.68 27.644 100.488 28.308 100.104 28.932C99.7197 29.572 99.1277 30.084 98.3277 30.468C97.5277 30.868 96.5037 31.068 95.2557 31.068C93.5597 31.068 92.1917 30.748 91.1517 30.108C90.1117 29.484 89.5917 28.54 89.5917 27.276C89.5917 26.204 90.1117 25.276 91.1517 24.492C90.8317 24.348 90.5517 24.196 90.3117 24.036C90.0877 23.876 89.8877 23.708 89.7117 23.532V22.98L91.7997 20.772C90.8717 19.956 90.4077 18.908 90.4077 17.628C90.4077 16.828 90.5997 16.1 90.9837 15.444C91.3837 14.788 91.9437 14.268 92.6637 13.884C93.3837 13.5 94.2557 13.308 95.2797 13.308C95.9517 13.308 96.5757 13.404 97.1517 13.596H101.664V15.468L99.6237 15.612C99.9437 16.22 100.104 16.892 100.104 17.628C100.104 18.428 99.9117 19.156 99.5277 19.812C99.1437 20.468 98.5837 20.988 97.8477 21.372C97.1277 21.756 96.2717 21.948 95.2797 21.948ZM95.2797 19.596C95.9037 19.596 96.4157 19.428 96.8157 19.092C97.2317 18.756 97.4397 18.276 97.4397 17.652C97.4397 17.028 97.2317 16.548 96.8157 16.212C96.4157 15.876 95.9037 15.708 95.2797 15.708C94.6237 15.708 94.0957 15.876 93.6957 16.212C93.2957 16.548 93.0957 17.028 93.0957 17.652C93.0957 18.276 93.2957 18.756 93.6957 19.092C94.0957 19.428 94.6237 19.596 95.2797 19.596ZM92.3997 26.964C92.3997 27.556 92.6717 27.996 93.2157 28.284C93.7757 28.588 94.4557 28.74 95.2557 28.74C96.0237 28.74 96.6477 28.58 97.1277 28.26C97.6077 27.956 97.8477 27.54 97.8477 27.012C97.8477 26.58 97.6877 26.22 97.3677 25.932C97.0637 25.644 96.4477 25.468 95.5197 25.404C94.8637 25.356 94.2557 25.284 93.6957 25.188C93.2317 25.444 92.8957 25.724 92.6877 26.028C92.4957 26.332 92.3997 26.644 92.3997 26.964ZM109.219 25.788C108.019 25.788 106.955 25.532 106.027 25.02C105.099 24.508 104.371 23.788 103.843 22.86C103.315 21.932 103.051 20.86 103.051 19.644C103.051 18.412 103.307 17.316 103.819 16.356C104.347 15.396 105.067 14.652 105.979 14.124C106.907 13.58 107.995 13.308 109.243 13.308C110.411 13.308 111.443 13.564 112.339 14.076C113.235 14.588 113.931 15.292 114.427 16.188C114.939 17.068 115.195 18.052 115.195 19.14C115.195 19.316 115.187 19.5 115.171 19.692C115.171 19.884 115.163 20.084 115.147 20.292H106.099C106.163 21.22 106.483 21.948 107.059 22.476C107.651 23.004 108.363 23.268 109.195 23.268C109.819 23.268 110.339 23.132 110.755 22.86C111.187 22.572 111.507 22.204 111.715 21.756H114.835C114.611 22.508 114.235 23.196 113.707 23.82C113.195 24.428 112.555 24.908 111.787 25.26C111.035 25.612 110.179 25.788 109.219 25.788ZM109.243 15.804C108.491 15.804 107.827 16.02 107.251 16.452C106.675 16.868 106.307 17.508 106.147 18.372H112.075C112.027 17.588 111.739 16.964 111.211 16.5C110.683 16.036 110.027 15.804 109.243 15.804ZM127.962 25.788C126.474 25.788 125.322 25.324 124.506 24.396C123.706 23.468 123.306 22.108 123.306 20.316V13.596H126.354V20.028C126.354 21.052 126.562 21.836 126.978 22.38C127.394 22.924 128.05 23.196 128.946 23.196C129.794 23.196 130.49 22.892 131.034 22.284C131.594 21.676 131.874 20.828 131.874 19.74V13.596H134.946V25.5H132.234L131.994 23.484C131.626 24.188 131.09 24.748 130.386 25.164C129.698 25.58 128.89 25.788 127.962 25.788ZM143.019 25.788C141.963 25.788 141.035 25.62 140.235 25.284C139.435 24.932 138.795 24.452 138.315 23.844C137.835 23.236 137.547 22.532 137.451 21.732H140.547C140.643 22.196 140.899 22.596 141.315 22.932C141.747 23.252 142.299 23.412 142.971 23.412C143.643 23.412 144.131 23.276 144.435 23.004C144.755 22.732 144.915 22.42 144.915 22.068C144.915 21.556 144.691 21.212 144.243 21.036C143.795 20.844 143.171 20.66 142.371 20.484C141.859 20.372 141.339 20.236 140.811 20.076C140.283 19.916 139.795 19.716 139.347 19.476C138.915 19.22 138.563 18.9 138.291 18.516C138.019 18.116 137.883 17.628 137.883 17.052C137.883 15.996 138.299 15.108 139.131 14.388C139.979 13.668 141.163 13.308 142.683 13.308C144.091 13.308 145.211 13.636 146.043 14.292C146.891 14.948 147.395 15.852 147.555 17.004H144.651C144.475 16.124 143.811 15.684 142.659 15.684C142.083 15.684 141.635 15.796 141.315 16.02C141.011 16.244 140.859 16.524 140.859 16.86C140.859 17.212 141.091 17.492 141.555 17.7C142.019 17.908 142.635 18.1 143.403 18.276C144.235 18.468 144.995 18.684 145.683 18.924C146.387 19.148 146.947 19.492 147.363 19.956C147.779 20.404 147.987 21.052 147.987 21.9C148.003 22.636 147.811 23.3 147.411 23.892C147.011 24.484 146.435 24.948 145.683 25.284C144.931 25.62 144.043 25.788 143.019 25.788ZM156.492 25.788C155.292 25.788 154.228 25.532 153.3 25.02C152.372 24.508 151.644 23.788 151.116 22.86C150.588 21.932 150.324 20.86 150.324 19.644C150.324 18.412 150.58 17.316 151.092 16.356C151.62 15.396 152.34 14.652 153.252 14.124C154.18 13.58 155.268 13.308 156.516 13.308C157.684 13.308 158.716 13.564 159.612 14.076C160.508 14.588 161.204 15.292 161.7 16.188C162.212 17.068 162.468 18.052 162.468 19.14C162.468 19.316 162.46 19.5 162.444 19.692C162.444 19.884 162.436 20.084 162.42 20.292H153.372C153.436 21.22 153.756 21.948 154.332 22.476C154.924 23.004 155.636 23.268 156.468 23.268C157.092 23.268 157.612 23.132 158.028 22.86C158.46 22.572 158.78 22.204 158.988 21.756H162.108C161.884 22.508 161.508 23.196 160.98 23.82C160.468 24.428 159.828 24.908 159.06 25.26C158.308 25.612 157.452 25.788 156.492 25.788ZM156.516 15.804C155.764 15.804 155.1 16.02 154.524 16.452C153.948 16.868 153.58 17.508 153.42 18.372H159.348C159.3 17.588 159.012 16.964 158.484 16.5C157.956 16.036 157.3 15.804 156.516 15.804ZM165.052 25.5V13.596H167.788L168.076 15.828C168.508 15.06 169.092 14.452 169.828 14.004C170.58 13.54 171.46 13.308 172.468 13.308V16.548H171.604C170.932 16.548 170.332 16.652 169.804 16.86C169.276 17.068 168.86 17.428 168.556 17.94C168.268 18.452 168.124 19.164 168.124 20.076V25.5H165.052ZM179.488 25.788C178.432 25.788 177.504 25.62 176.704 25.284C175.904 24.932 175.264 24.452 174.784 23.844C174.304 23.236 174.016 22.532 173.92 21.732H177.016C177.112 22.196 177.368 22.596 177.784 22.932C178.216 23.252 178.768 23.412 179.44 23.412C180.112 23.412 180.6 23.276 180.904 23.004C181.224 22.732 181.384 22.42 181.384 22.068C181.384 21.556 181.16 21.212 180.712 21.036C180.264 20.844 179.64 20.66 178.84 20.484C178.328 20.372 177.808 20.236 177.28 20.076C176.752 19.916 176.264 19.716 175.816 19.476C175.384 19.22 175.032 18.9 174.76 18.516C174.488 18.116 174.352 17.628 174.352 17.052C174.352 15.996 174.768 15.108 175.6 14.388C176.448 13.668 177.632 13.308 179.152 13.308C180.56 13.308 181.68 13.636 182.512 14.292C183.36 14.948 183.864 15.852 184.024 17.004H181.12C180.944 16.124 180.28 15.684 179.128 15.684C178.552 15.684 178.104 15.796 177.784 16.02C177.48 16.244 177.328 16.524 177.328 16.86C177.328 17.212 177.56 17.492 178.024 17.7C178.488 17.908 179.104 18.1 179.872 18.276C180.704 18.468 181.464 18.684 182.152 18.924C182.856 19.148 183.416 19.492 183.832 19.956C184.248 20.404 184.456 21.052 184.456 21.9C184.472 22.636 184.28 23.3 183.88 23.892C183.48 24.484 182.904 24.948 182.152 25.284C181.4 25.62 180.512 25.788 179.488 25.788ZM193.448 25.5V16.164H191.816V13.596H193.448V12.204C193.448 10.764 193.808 9.74 194.528 9.132C195.264 8.524 196.256 8.22 197.504 8.22H198.824V10.836H197.984C197.456 10.836 197.08 10.94 196.856 11.148C196.632 11.356 196.52 11.708 196.52 12.204V13.596H199.088V16.164H196.52V25.5H193.448ZM201.521 25.5V13.596H204.257L204.545 15.828C204.977 15.06 205.561 14.452 206.297 14.004C207.049 13.54 207.929 13.308 208.937 13.308V16.548H208.073C207.401 16.548 206.801 16.652 206.273 16.86C205.745 17.068 205.329 17.428 205.025 17.94C204.737 18.452 204.593 19.164 204.593 20.076V25.5H201.521ZM216.538 25.788C215.386 25.788 214.346 25.524 213.418 24.996C212.506 24.468 211.778 23.74 211.234 22.812C210.706 21.868 210.442 20.78 210.442 19.548C210.442 18.316 210.714 17.236 211.258 16.308C211.802 15.364 212.53 14.628 213.442 14.1C214.37 13.572 215.41 13.308 216.562 13.308C217.698 13.308 218.722 13.572 219.634 14.1C220.562 14.628 221.29 15.364 221.818 16.308C222.362 17.236 222.634 18.316 222.634 19.548C222.634 20.78 222.362 21.868 221.818 22.812C221.29 23.74 220.562 24.468 219.634 24.996C218.706 25.524 217.674 25.788 216.538 25.788ZM216.538 23.124C217.338 23.124 218.034 22.828 218.626 22.236C219.218 21.628 219.514 20.732 219.514 19.548C219.514 18.364 219.218 17.476 218.626 16.884C218.034 16.276 217.346 15.972 216.562 15.972C215.746 15.972 215.042 16.276 214.45 16.884C213.874 17.476 213.586 18.364 213.586 19.548C213.586 20.732 213.874 21.628 214.45 22.236C215.042 22.828 215.738 23.124 216.538 23.124ZM225.38 25.5V13.596H228.092L228.356 15.204C228.74 14.628 229.244 14.172 229.868 13.836C230.508 13.484 231.244 13.308 232.076 13.308C233.916 13.308 235.22 14.02 235.988 15.444C236.42 14.788 236.996 14.268 237.716 13.884C238.452 13.5 239.252 13.308 240.116 13.308C241.668 13.308 242.86 13.772 243.692 14.7C244.524 15.628 244.94 16.988 244.94 18.78V25.5H241.868V19.068C241.868 18.044 241.668 17.26 241.268 16.716C240.884 16.172 240.284 15.9 239.468 15.9C238.636 15.9 237.964 16.204 237.452 16.812C236.956 17.42 236.708 18.268 236.708 19.356V25.5H233.636V19.068C233.636 18.044 233.436 17.26 233.036 16.716C232.636 16.172 232.02 15.9 231.188 15.9C230.372 15.9 229.708 16.204 229.196 16.812C228.7 17.42 228.452 18.268 228.452 19.356V25.5H225.38ZM258.88 25.5C257.632 25.5 256.632 25.196 255.88 24.588C255.128 23.98 254.752 22.9 254.752 21.348V16.164H252.712V13.596H254.752L255.112 10.404H257.824V13.596H261.04V16.164H257.824V21.372C257.824 21.948 257.944 22.348 258.184 22.572C258.44 22.78 258.872 22.884 259.48 22.884H260.968V25.5H258.88ZM263.677 25.5V8.22H266.749V15.42C267.149 14.764 267.685 14.252 268.357 13.884C269.045 13.5 269.829 13.308 270.709 13.308C272.181 13.308 273.317 13.772 274.117 14.7C274.933 15.628 275.341 16.988 275.341 18.78V25.5H272.293V19.068C272.293 18.044 272.085 17.26 271.669 16.716C271.269 16.172 270.629 15.9 269.749 15.9C268.885 15.9 268.165 16.204 267.589 16.812C267.029 17.42 266.749 18.268 266.749 19.356V25.5H263.677ZM284.063 25.788C282.863 25.788 281.799 25.532 280.871 25.02C279.943 24.508 279.215 23.788 278.687 22.86C278.159 21.932 277.895 20.86 277.895 19.644C277.895 18.412 278.151 17.316 278.663 16.356C279.191 15.396 279.911 14.652 280.823 14.124C281.751 13.58 282.839 13.308 284.087 13.308C285.255 13.308 286.287 13.564 287.183 14.076C288.079 14.588 288.775 15.292 289.271 16.188C289.783 17.068 290.039 18.052 290.039 19.14C290.039 19.316 290.031 19.5 290.015 19.692C290.015 19.884 290.007 20.084 289.991 20.292H280.943C281.007 21.22 281.327 21.948 281.903 22.476C282.495 23.004 283.207 23.268 284.039 23.268C284.663 23.268 285.183 23.132 285.599 22.86C286.031 22.572 286.351 22.204 286.559 21.756H289.679C289.455 22.508 289.079 23.196 288.551 23.82C288.039 24.428 287.399 24.908 286.631 25.26C285.879 25.612 285.023 25.788 284.063 25.788ZM284.087 15.804C283.335 15.804 282.671 16.02 282.095 16.452C281.519 16.868 281.151 17.508 280.991 18.372H286.919C286.871 17.588 286.583 16.964 286.055 16.5C285.527 16.036 284.871 15.804 284.087 15.804ZM301.557 25.5L297.189 13.596H300.405L303.429 22.596L306.453 13.596H309.669L305.277 25.5H301.557ZM313.263 11.748C312.703 11.748 312.239 11.58 311.871 11.244C311.519 10.908 311.343 10.484 311.343 9.972C311.343 9.46 311.519 9.044 311.871 8.724C312.239 8.388 312.703 8.22 313.263 8.22C313.823 8.22 314.279 8.388 314.631 8.724C314.999 9.044 315.183 9.46 315.183 9.972C315.183 10.484 314.999 10.908 314.631 11.244C314.279 11.58 313.823 11.748 313.263 11.748ZM311.727 25.5V13.596H314.799V25.5H311.727ZM323.477 25.788C322.357 25.788 321.357 25.516 320.477 24.972C319.597 24.428 318.901 23.684 318.389 22.74C317.877 21.796 317.621 20.724 317.621 19.524C317.621 18.324 317.877 17.26 318.389 16.332C318.901 15.388 319.597 14.652 320.477 14.124C321.357 13.58 322.357 13.308 323.477 13.308C324.373 13.308 325.157 13.476 325.829 13.812C326.501 14.148 327.045 14.62 327.461 15.228V8.22H330.533V25.5H327.797L327.461 23.796C327.077 24.324 326.565 24.788 325.925 25.188C325.301 25.588 324.485 25.788 323.477 25.788ZM324.125 23.1C325.117 23.1 325.925 22.772 326.549 22.116C327.189 21.444 327.509 20.588 327.509 19.548C327.509 18.508 327.189 17.66 326.549 17.004C325.925 16.332 325.117 15.996 324.125 15.996C323.149 15.996 322.341 16.324 321.701 16.98C321.061 17.636 320.741 18.484 320.741 19.524C320.741 20.564 321.061 21.42 321.701 22.092C322.341 22.764 323.149 23.1 324.125 23.1ZM339.446 25.788C338.246 25.788 337.182 25.532 336.254 25.02C335.326 24.508 334.598 23.788 334.07 22.86C333.542 21.932 333.278 20.86 333.278 19.644C333.278 18.412 333.534 17.316 334.046 16.356C334.574 15.396 335.294 14.652 336.206 14.124C337.134 13.58 338.222 13.308 339.47 13.308C340.638 13.308 341.67 13.564 342.566 14.076C343.462 14.588 344.158 15.292 344.654 16.188C345.166 17.068 345.422 18.052 345.422 19.14C345.422 19.316 345.414 19.5 345.398 19.692C345.398 19.884 345.39 20.084 345.374 20.292H336.326C336.39 21.22 336.71 21.948 337.286 22.476C337.878 23.004 338.59 23.268 339.422 23.268C340.046 23.268 340.566 23.132 340.982 22.86C341.414 22.572 341.734 22.204 341.942 21.756H345.062C344.838 22.508 344.462 23.196 343.934 23.82C343.422 24.428 342.782 24.908 342.014 25.26C341.262 25.612 340.406 25.788 339.446 25.788ZM339.47 15.804C338.718 15.804 338.054 16.02 337.478 16.452C336.902 16.868 336.534 17.508 336.374 18.372H342.302C342.254 17.588 341.966 16.964 341.438 16.5C340.91 16.036 340.254 15.804 339.47 15.804ZM353.717 25.788C352.565 25.788 351.525 25.524 350.597 24.996C349.685 24.468 348.957 23.74 348.413 22.812C347.885 21.868 347.621 20.78 347.621 19.548C347.621 18.316 347.893 17.236 348.437 16.308C348.981 15.364 349.709 14.628 350.621 14.1C351.549 13.572 352.589 13.308 353.741 13.308C354.877 13.308 355.901 13.572 356.813 14.1C357.741 14.628 358.469 15.364 358.997 16.308C359.541 17.236 359.813 18.316 359.813 19.548C359.813 20.78 359.541 21.868 358.997 22.812C358.469 23.74 357.741 24.468 356.813 24.996C355.885 25.524 354.853 25.788 353.717 25.788ZM353.717 23.124C354.517 23.124 355.213 22.828 355.805 22.236C356.397 21.628 356.693 20.732 356.693 19.548C356.693 18.364 356.397 17.476 355.805 16.884C355.213 16.276 354.525 15.972 353.741 15.972C352.925 15.972 352.221 16.276 351.629 16.884C351.053 17.476 350.765 18.364 350.765 19.548C350.765 20.732 351.053 21.628 351.629 22.236C352.221 22.828 352.917 23.124 353.717 23.124Z" fill="white"/>
</svg>
