<svg width="450" height="33" viewBox="0 0 450 33" fill="none" xmlns="http://www.w3.org/2000/svg">
<rect width="450" height="33" rx="8" fill="#6E4B93"/>
<path d="M21.8873 25.5L22.7753 21.3H19.3193V18.54H23.3753L24.1193 15.036H20.5913V12.276H24.7193L25.6073 8.148H28.4873L27.5993 12.276H32.1593L33.0473 8.148H35.9273L35.0633 12.276H38.1833V15.036H34.4633L33.7193 18.54H36.9113V21.3H33.1193L32.2313 25.5H29.3273L30.2393 21.3H25.6793L24.7913 25.5H21.8873ZM26.2553 18.54H30.8153L31.5833 15.036H27.0233L26.2553 18.54ZM40.8078 25.5V8.7H47.0238C48.3678 8.7 49.4798 8.924 50.3598 9.372C51.2398 9.82 51.8958 10.436 52.3278 11.22C52.7598 12.004 52.9758 12.884 52.9758 13.86C52.9758 14.788 52.7678 15.644 52.3518 16.428C51.9358 17.196 51.2878 17.82 50.4078 18.3C49.5278 18.764 48.3998 18.996 47.0238 18.996H43.8798V25.5H40.8078ZM43.8798 16.5H46.8318C47.9038 16.5 48.6718 16.268 49.1358 15.804C49.6158 15.324 49.8558 14.676 49.8558 13.86C49.8558 13.028 49.6158 12.38 49.1358 11.916C48.6718 11.436 47.9038 11.196 46.8318 11.196H43.8798V16.5ZM60.4165 25.788C59.2645 25.788 58.2245 25.524 57.2965 24.996C56.3845 24.468 55.6565 23.74 55.1125 22.812C54.5845 21.868 54.3205 20.78 54.3205 19.548C54.3205 18.316 54.5925 17.236 55.1365 16.308C55.6805 15.364 56.4085 14.628 57.3205 14.1C58.2485 13.572 59.2885 13.308 60.4405 13.308C61.5765 13.308 62.6005 13.572 63.5125 14.1C64.4405 14.628 65.1685 15.364 65.6965 16.308C66.2405 17.236 66.5125 18.316 66.5125 19.548C66.5125 20.78 66.2405 21.868 65.6965 22.812C65.1685 23.74 64.4405 24.468 63.5125 24.996C62.5845 25.524 61.5525 25.788 60.4165 25.788ZM60.4165 23.124C61.2165 23.124 61.9125 22.828 62.5045 22.236C63.0965 21.628 63.3925 20.732 63.3925 19.548C63.3925 18.364 63.0965 17.476 62.5045 16.884C61.9125 16.276 61.2245 15.972 60.4405 15.972C59.6245 15.972 58.9205 16.276 58.3285 16.884C57.7525 17.476 57.4645 18.364 57.4645 19.548C57.4645 20.732 57.7525 21.628 58.3285 22.236C58.9205 22.828 59.6165 23.124 60.4165 23.124ZM74.1792 25.788C73.1232 25.788 72.1952 25.62 71.3952 25.284C70.5952 24.932 69.9552 24.452 69.4752 23.844C68.9952 23.236 68.7072 22.532 68.6112 21.732H71.7072C71.8032 22.196 72.0592 22.596 72.4752 22.932C72.9072 23.252 73.4592 23.412 74.1312 23.412C74.8032 23.412 75.2912 23.276 75.5952 23.004C75.9152 22.732 76.0752 22.42 76.0752 22.068C76.0752 21.556 75.8512 21.212 75.4032 21.036C74.9552 20.844 74.3312 20.66 73.5312 20.484C73.0192 20.372 72.4992 20.236 71.9712 20.076C71.4432 19.916 70.9552 19.716 70.5072 19.476C70.0752 19.22 69.7232 18.9 69.4512 18.516C69.1792 18.116 69.0432 17.628 69.0432 17.052C69.0432 15.996 69.4592 15.108 70.2912 14.388C71.1392 13.668 72.3232 13.308 73.8432 13.308C75.2512 13.308 76.3712 13.636 77.2032 14.292C78.0512 14.948 78.5552 15.852 78.7152 17.004H75.8112C75.6352 16.124 74.9712 15.684 73.8192 15.684C73.2432 15.684 72.7952 15.796 72.4752 16.02C72.1712 16.244 72.0192 16.524 72.0192 16.86C72.0192 17.212 72.2512 17.492 72.7152 17.7C73.1792 17.908 73.7952 18.1 74.5632 18.276C75.3952 18.468 76.1552 18.684 76.8432 18.924C77.5472 19.148 78.1072 19.492 78.5232 19.956C78.9392 20.404 79.1472 21.052 79.1472 21.9C79.1632 22.636 78.9712 23.3 78.5712 23.892C78.1712 24.484 77.5952 24.948 76.8432 25.284C76.0912 25.62 75.2032 25.788 74.1792 25.788ZM83.5246 11.748C82.9646 11.748 82.5006 11.58 82.1326 11.244C81.7806 10.908 81.6046 10.484 81.6046 9.972C81.6046 9.46 81.7806 9.044 82.1326 8.724C82.5006 8.388 82.9646 8.22 83.5246 8.22C84.0846 8.22 84.5406 8.388 84.8926 8.724C85.2606 9.044 85.4446 9.46 85.4446 9.972C85.4446 10.484 85.2606 10.908 84.8926 11.244C84.5406 11.58 84.0846 11.748 83.5246 11.748ZM81.9886 25.5V13.596H85.0606V25.5H81.9886ZM93.571 25.5C92.323 25.5 91.323 25.196 90.571 24.588C89.819 23.98 89.443 22.9 89.443 21.348V16.164H87.403V13.596H89.443L89.803 10.404H92.515V13.596H95.731V16.164H92.515V21.372C92.515 21.948 92.635 22.348 92.875 22.572C93.131 22.78 93.563 22.884 94.171 22.884H95.659V25.5H93.571ZM100.025 11.748C99.4646 11.748 99.0006 11.58 98.6326 11.244C98.2806 10.908 98.1046 10.484 98.1046 9.972C98.1046 9.46 98.2806 9.044 98.6326 8.724C99.0006 8.388 99.4646 8.22 100.025 8.22C100.585 8.22 101.041 8.388 101.393 8.724C101.761 9.044 101.945 9.46 101.945 9.972C101.945 10.484 101.761 10.908 101.393 11.244C101.041 11.58 100.585 11.748 100.025 11.748ZM98.4886 25.5V13.596H101.561V25.5H98.4886ZM107.983 25.5L103.615 13.596H106.831L109.855 22.596L112.879 13.596H116.095L111.703 25.5H107.983ZM123.231 25.788C122.031 25.788 120.967 25.532 120.039 25.02C119.111 24.508 118.383 23.788 117.855 22.86C117.327 21.932 117.063 20.86 117.063 19.644C117.063 18.412 117.319 17.316 117.831 16.356C118.359 15.396 119.079 14.652 119.991 14.124C120.919 13.58 122.007 13.308 123.255 13.308C124.423 13.308 125.455 13.564 126.351 14.076C127.247 14.588 127.943 15.292 128.439 16.188C128.951 17.068 129.207 18.052 129.207 19.14C129.207 19.316 129.199 19.5 129.183 19.692C129.183 19.884 129.175 20.084 129.159 20.292H120.111C120.175 21.22 120.495 21.948 121.071 22.476C121.663 23.004 122.375 23.268 123.207 23.268C123.831 23.268 124.351 23.132 124.767 22.86C125.199 22.572 125.519 22.204 125.727 21.756H128.847C128.623 22.508 128.247 23.196 127.719 23.82C127.207 24.428 126.567 24.908 125.799 25.26C125.047 25.612 124.191 25.788 123.231 25.788ZM123.255 15.804C122.503 15.804 121.839 16.02 121.263 16.452C120.687 16.868 120.319 17.508 120.159 18.372H126.087C126.039 17.588 125.751 16.964 125.223 16.5C124.695 16.036 124.039 15.804 123.255 15.804ZM137.581 25.5V8.7H143.749C145.093 8.7 146.197 8.932 147.061 9.396C147.941 9.844 148.597 10.46 149.029 11.244C149.461 12.012 149.677 12.868 149.677 13.812C149.677 14.836 149.405 15.772 148.861 16.62C148.333 17.468 147.501 18.084 146.365 18.468L149.845 25.5H146.317L143.197 18.876H140.653V25.5H137.581ZM140.653 16.62H143.557C144.581 16.62 145.333 16.372 145.813 15.876C146.293 15.38 146.533 14.724 146.533 13.908C146.533 13.108 146.293 12.468 145.813 11.988C145.349 11.508 144.589 11.268 143.533 11.268H140.653V16.62ZM157.52 25.788C156.32 25.788 155.256 25.532 154.328 25.02C153.4 24.508 152.672 23.788 152.144 22.86C151.616 21.932 151.352 20.86 151.352 19.644C151.352 18.412 151.608 17.316 152.12 16.356C152.648 15.396 153.368 14.652 154.28 14.124C155.208 13.58 156.296 13.308 157.544 13.308C158.712 13.308 159.744 13.564 160.64 14.076C161.536 14.588 162.232 15.292 162.728 16.188C163.24 17.068 163.496 18.052 163.496 19.14C163.496 19.316 163.488 19.5 163.472 19.692C163.472 19.884 163.464 20.084 163.448 20.292H154.4C154.464 21.22 154.784 21.948 155.36 22.476C155.952 23.004 156.664 23.268 157.496 23.268C158.12 23.268 158.64 23.132 159.056 22.86C159.488 22.572 159.808 22.204 160.016 21.756H163.136C162.912 22.508 162.536 23.196 162.008 23.82C161.496 24.428 160.856 24.908 160.088 25.26C159.336 25.612 158.48 25.788 157.52 25.788ZM157.544 15.804C156.792 15.804 156.128 16.02 155.552 16.452C154.976 16.868 154.608 17.508 154.448 18.372H160.376C160.328 17.588 160.04 16.964 159.512 16.5C158.984 16.036 158.328 15.804 157.544 15.804ZM168.827 25.5L164.459 13.596H167.675L170.699 22.596L173.723 13.596H176.939L172.547 25.5H168.827ZM180.532 11.748C179.972 11.748 179.508 11.58 179.14 11.244C178.788 10.908 178.612 10.484 178.612 9.972C178.612 9.46 178.788 9.044 179.14 8.724C179.508 8.388 179.972 8.22 180.532 8.22C181.092 8.22 181.548 8.388 181.9 8.724C182.268 9.044 182.452 9.46 182.452 9.972C182.452 10.484 182.268 10.908 181.9 11.244C181.548 11.58 181.092 11.748 180.532 11.748ZM178.996 25.5V13.596H182.068V25.5H178.996ZM191.059 25.788C189.859 25.788 188.795 25.532 187.867 25.02C186.939 24.508 186.211 23.788 185.683 22.86C185.155 21.932 184.891 20.86 184.891 19.644C184.891 18.412 185.147 17.316 185.659 16.356C186.187 15.396 186.907 14.652 187.819 14.124C188.747 13.58 189.835 13.308 191.083 13.308C192.251 13.308 193.283 13.564 194.179 14.076C195.075 14.588 195.771 15.292 196.267 16.188C196.779 17.068 197.035 18.052 197.035 19.14C197.035 19.316 197.027 19.5 197.011 19.692C197.011 19.884 197.003 20.084 196.987 20.292H187.939C188.003 21.22 188.323 21.948 188.899 22.476C189.491 23.004 190.203 23.268 191.035 23.268C191.659 23.268 192.179 23.132 192.595 22.86C193.027 22.572 193.347 22.204 193.555 21.756H196.675C196.451 22.508 196.075 23.196 195.547 23.82C195.035 24.428 194.395 24.908 193.627 25.26C192.875 25.612 192.019 25.788 191.059 25.788ZM191.083 15.804C190.331 15.804 189.667 16.02 189.091 16.452C188.515 16.868 188.147 17.508 187.987 18.372H193.915C193.867 17.588 193.579 16.964 193.051 16.5C192.523 16.036 191.867 15.804 191.083 15.804ZM201.478 25.5L197.998 13.596H201.046L203.11 22.164L205.51 13.596H208.918L211.318 22.164L213.406 13.596H216.454L212.95 25.5H209.758L207.214 16.596L204.67 25.5H201.478ZM223.312 25.788C222.256 25.788 221.328 25.62 220.528 25.284C219.728 24.932 219.088 24.452 218.608 23.844C218.128 23.236 217.84 22.532 217.744 21.732H220.84C220.936 22.196 221.192 22.596 221.608 22.932C222.04 23.252 222.592 23.412 223.264 23.412C223.936 23.412 224.424 23.276 224.728 23.004C225.048 22.732 225.208 22.42 225.208 22.068C225.208 21.556 224.984 21.212 224.536 21.036C224.088 20.844 223.464 20.66 222.664 20.484C222.152 20.372 221.632 20.236 221.104 20.076C220.576 19.916 220.088 19.716 219.64 19.476C219.208 19.22 218.856 18.9 218.584 18.516C218.312 18.116 218.176 17.628 218.176 17.052C218.176 15.996 218.592 15.108 219.424 14.388C220.272 13.668 221.456 13.308 222.976 13.308C224.384 13.308 225.504 13.636 226.336 14.292C227.184 14.948 227.688 15.852 227.848 17.004H224.944C224.768 16.124 224.104 15.684 222.952 15.684C222.376 15.684 221.928 15.796 221.608 16.02C221.304 16.244 221.152 16.524 221.152 16.86C221.152 17.212 221.384 17.492 221.848 17.7C222.312 17.908 222.928 18.1 223.696 18.276C224.528 18.468 225.288 18.684 225.976 18.924C226.68 19.148 227.24 19.492 227.656 19.956C228.072 20.404 228.28 21.052 228.28 21.9C228.296 22.636 228.104 23.3 227.704 23.892C227.304 24.484 226.728 24.948 225.976 25.284C225.224 25.62 224.336 25.788 223.312 25.788ZM237.272 25.5V16.164H235.64V13.596H237.272V12.204C237.272 10.764 237.632 9.74 238.352 9.132C239.088 8.524 240.08 8.22 241.328 8.22H242.648V10.836H241.808C241.28 10.836 240.904 10.94 240.68 11.148C240.456 11.356 240.344 11.708 240.344 12.204V13.596H242.912V16.164H240.344V25.5H237.272ZM245.345 25.5V13.596H248.081L248.369 15.828C248.801 15.06 249.385 14.452 250.121 14.004C250.873 13.54 251.753 13.308 252.761 13.308V16.548H251.897C251.225 16.548 250.625 16.652 250.097 16.86C249.569 17.068 249.153 17.428 248.849 17.94C248.561 18.452 248.417 19.164 248.417 20.076V25.5H245.345ZM260.362 25.788C259.21 25.788 258.17 25.524 257.242 24.996C256.33 24.468 255.602 23.74 255.058 22.812C254.53 21.868 254.266 20.78 254.266 19.548C254.266 18.316 254.538 17.236 255.082 16.308C255.626 15.364 256.354 14.628 257.266 14.1C258.194 13.572 259.234 13.308 260.386 13.308C261.522 13.308 262.546 13.572 263.458 14.1C264.386 14.628 265.114 15.364 265.642 16.308C266.186 17.236 266.458 18.316 266.458 19.548C266.458 20.78 266.186 21.868 265.642 22.812C265.114 23.74 264.386 24.468 263.458 24.996C262.53 25.524 261.498 25.788 260.362 25.788ZM260.362 23.124C261.162 23.124 261.858 22.828 262.45 22.236C263.042 21.628 263.338 20.732 263.338 19.548C263.338 18.364 263.042 17.476 262.45 16.884C261.858 16.276 261.17 15.972 260.386 15.972C259.57 15.972 258.866 16.276 258.274 16.884C257.698 17.476 257.41 18.364 257.41 19.548C257.41 20.732 257.698 21.628 258.274 22.236C258.866 22.828 259.562 23.124 260.362 23.124ZM269.205 25.5V13.596H271.917L272.181 15.204C272.565 14.628 273.069 14.172 273.693 13.836C274.333 13.484 275.069 13.308 275.901 13.308C277.741 13.308 279.045 14.02 279.813 15.444C280.245 14.788 280.821 14.268 281.541 13.884C282.277 13.5 283.077 13.308 283.941 13.308C285.493 13.308 286.685 13.772 287.517 14.7C288.349 15.628 288.765 16.988 288.765 18.78V25.5H285.693V19.068C285.693 18.044 285.493 17.26 285.093 16.716C284.709 16.172 284.109 15.9 283.293 15.9C282.461 15.9 281.789 16.204 281.277 16.812C280.781 17.42 280.533 18.268 280.533 19.356V25.5H277.461V19.068C277.461 18.044 277.261 17.26 276.861 16.716C276.461 16.172 275.845 15.9 275.013 15.9C274.197 15.9 273.533 16.204 273.021 16.812C272.525 17.42 272.277 18.268 272.277 19.356V25.5H269.205ZM297.472 25.5V8.7H303.64C304.984 8.7 306.088 8.932 306.952 9.396C307.832 9.844 308.488 10.46 308.92 11.244C309.352 12.012 309.568 12.868 309.568 13.812C309.568 14.836 309.296 15.772 308.752 16.62C308.224 17.468 307.392 18.084 306.256 18.468L309.736 25.5H306.208L303.088 18.876H300.544V25.5H297.472ZM300.544 16.62H303.448C304.472 16.62 305.224 16.372 305.704 15.876C306.184 15.38 306.424 14.724 306.424 13.908C306.424 13.108 306.184 12.468 305.704 11.988C305.24 11.508 304.48 11.268 303.424 11.268H300.544V16.62ZM317.41 25.788C316.21 25.788 315.146 25.532 314.218 25.02C313.29 24.508 312.562 23.788 312.034 22.86C311.506 21.932 311.242 20.86 311.242 19.644C311.242 18.412 311.498 17.316 312.01 16.356C312.538 15.396 313.258 14.652 314.17 14.124C315.098 13.58 316.186 13.308 317.434 13.308C318.602 13.308 319.634 13.564 320.53 14.076C321.426 14.588 322.122 15.292 322.618 16.188C323.13 17.068 323.386 18.052 323.386 19.14C323.386 19.316 323.378 19.5 323.362 19.692C323.362 19.884 323.354 20.084 323.338 20.292H314.29C314.354 21.22 314.674 21.948 315.25 22.476C315.842 23.004 316.554 23.268 317.386 23.268C318.01 23.268 318.53 23.132 318.946 22.86C319.378 22.572 319.698 22.204 319.906 21.756H323.026C322.802 22.508 322.426 23.196 321.898 23.82C321.386 24.428 320.746 24.908 319.978 25.26C319.226 25.612 318.37 25.788 317.41 25.788ZM317.434 15.804C316.682 15.804 316.018 16.02 315.442 16.452C314.866 16.868 314.498 17.508 314.338 18.372H320.266C320.218 17.588 319.93 16.964 319.402 16.5C318.874 16.036 318.218 15.804 317.434 15.804ZM330.074 25.788C329.05 25.788 328.21 25.628 327.554 25.308C326.898 24.972 326.41 24.532 326.09 23.988C325.77 23.444 325.61 22.844 325.61 22.188C325.61 21.084 326.042 20.188 326.906 19.5C327.77 18.812 329.066 18.468 330.794 18.468H333.818V18.18C333.818 17.364 333.586 16.764 333.122 16.38C332.658 15.996 332.082 15.804 331.394 15.804C330.77 15.804 330.226 15.956 329.762 16.26C329.298 16.548 329.01 16.98 328.898 17.556H325.898C325.978 16.692 326.266 15.94 326.762 15.3C327.274 14.66 327.93 14.172 328.73 13.836C329.53 13.484 330.426 13.308 331.418 13.308C333.114 13.308 334.45 13.732 335.426 14.58C336.402 15.428 336.89 16.628 336.89 18.18V25.5H334.274L333.986 23.58C333.634 24.22 333.138 24.748 332.498 25.164C331.874 25.58 331.066 25.788 330.074 25.788ZM330.77 23.388C331.65 23.388 332.33 23.1 332.81 22.524C333.306 21.948 333.618 21.236 333.746 20.388H331.13C330.314 20.388 329.73 20.54 329.378 20.844C329.026 21.132 328.85 21.492 328.85 21.924C328.85 22.388 329.026 22.748 329.378 23.004C329.73 23.26 330.194 23.388 330.77 23.388ZM339.822 25.5V8.22H342.894V25.5H339.822ZM351.751 30.78V13.596H354.487L354.823 15.3C355.207 14.772 355.711 14.308 356.335 13.908C356.975 13.508 357.799 13.308 358.807 13.308C359.927 13.308 360.927 13.58 361.807 14.124C362.687 14.668 363.383 15.412 363.895 16.356C364.407 17.3 364.663 18.372 364.663 19.572C364.663 20.772 364.407 21.844 363.895 22.788C363.383 23.716 362.687 24.452 361.807 24.996C360.927 25.524 359.927 25.788 358.807 25.788C357.911 25.788 357.127 25.62 356.455 25.284C355.783 24.948 355.239 24.476 354.823 23.868V30.78H351.751ZM358.159 23.1C359.135 23.1 359.943 22.772 360.583 22.116C361.223 21.46 361.543 20.612 361.543 19.572C361.543 18.532 361.223 17.676 360.583 17.004C359.943 16.332 359.135 15.996 358.159 15.996C357.167 15.996 356.351 16.332 355.711 17.004C355.087 17.66 354.775 18.508 354.775 19.548C354.775 20.588 355.087 21.444 355.711 22.116C356.351 22.772 357.167 23.1 358.159 23.1ZM373.192 25.788C371.992 25.788 370.928 25.532 370 25.02C369.072 24.508 368.344 23.788 367.816 22.86C367.288 21.932 367.024 20.86 367.024 19.644C367.024 18.412 367.28 17.316 367.792 16.356C368.32 15.396 369.04 14.652 369.952 14.124C370.88 13.58 371.968 13.308 373.216 13.308C374.384 13.308 375.416 13.564 376.312 14.076C377.208 14.588 377.904 15.292 378.4 16.188C378.912 17.068 379.168 18.052 379.168 19.14C379.168 19.316 379.16 19.5 379.144 19.692C379.144 19.884 379.136 20.084 379.12 20.292H370.072C370.136 21.22 370.456 21.948 371.032 22.476C371.624 23.004 372.336 23.268 373.168 23.268C373.792 23.268 374.312 23.132 374.728 22.86C375.16 22.572 375.48 22.204 375.688 21.756H378.808C378.584 22.508 378.208 23.196 377.68 23.82C377.168 24.428 376.528 24.908 375.76 25.26C375.008 25.612 374.152 25.788 373.192 25.788ZM373.216 15.804C372.464 15.804 371.8 16.02 371.224 16.452C370.648 16.868 370.28 17.508 370.12 18.372H376.048C376 17.588 375.712 16.964 375.184 16.5C374.656 16.036 374 15.804 373.216 15.804ZM381.751 25.5V13.596H384.487L384.775 15.828C385.207 15.06 385.791 14.452 386.527 14.004C387.279 13.54 388.159 13.308 389.167 13.308V16.548H388.303C387.631 16.548 387.031 16.652 386.503 16.86C385.975 17.068 385.559 17.428 385.255 17.94C384.967 18.452 384.823 19.164 384.823 20.076V25.5H381.751ZM396.187 25.788C395.131 25.788 394.203 25.62 393.403 25.284C392.603 24.932 391.963 24.452 391.483 23.844C391.003 23.236 390.715 22.532 390.619 21.732H393.715C393.811 22.196 394.067 22.596 394.483 22.932C394.915 23.252 395.467 23.412 396.139 23.412C396.811 23.412 397.299 23.276 397.603 23.004C397.923 22.732 398.083 22.42 398.083 22.068C398.083 21.556 397.859 21.212 397.411 21.036C396.963 20.844 396.339 20.66 395.539 20.484C395.027 20.372 394.507 20.236 393.979 20.076C393.451 19.916 392.963 19.716 392.515 19.476C392.083 19.22 391.731 18.9 391.459 18.516C391.187 18.116 391.051 17.628 391.051 17.052C391.051 15.996 391.467 15.108 392.299 14.388C393.147 13.668 394.331 13.308 395.851 13.308C397.259 13.308 398.379 13.636 399.211 14.292C400.059 14.948 400.563 15.852 400.723 17.004H397.819C397.643 16.124 396.979 15.684 395.827 15.684C395.251 15.684 394.803 15.796 394.483 16.02C394.179 16.244 394.027 16.524 394.027 16.86C394.027 17.212 394.259 17.492 394.723 17.7C395.187 17.908 395.803 18.1 396.571 18.276C397.403 18.468 398.163 18.684 398.851 18.924C399.555 19.148 400.115 19.492 400.531 19.956C400.947 20.404 401.155 21.052 401.155 21.9C401.171 22.636 400.979 23.3 400.579 23.892C400.179 24.484 399.603 24.948 398.851 25.284C398.099 25.62 397.211 25.788 396.187 25.788ZM409.588 25.788C408.436 25.788 407.396 25.524 406.468 24.996C405.556 24.468 404.828 23.74 404.284 22.812C403.756 21.868 403.492 20.78 403.492 19.548C403.492 18.316 403.764 17.236 404.308 16.308C404.852 15.364 405.58 14.628 406.492 14.1C407.42 13.572 408.46 13.308 409.612 13.308C410.748 13.308 411.772 13.572 412.684 14.1C413.612 14.628 414.34 15.364 414.868 16.308C415.412 17.236 415.684 18.316 415.684 19.548C415.684 20.78 415.412 21.868 414.868 22.812C414.34 23.74 413.612 24.468 412.684 24.996C411.756 25.524 410.724 25.788 409.588 25.788ZM409.588 23.124C410.388 23.124 411.084 22.828 411.676 22.236C412.268 21.628 412.564 20.732 412.564 19.548C412.564 18.364 412.268 17.476 411.676 16.884C411.084 16.276 410.396 15.972 409.612 15.972C408.796 15.972 408.092 16.276 407.5 16.884C406.924 17.476 406.636 18.364 406.636 19.548C406.636 20.732 406.924 21.628 407.5 22.236C408.092 22.828 408.788 23.124 409.588 23.124ZM418.431 25.5V13.596H421.143L421.383 15.612C421.751 14.908 422.279 14.348 422.967 13.932C423.671 13.516 424.495 13.308 425.439 13.308C426.911 13.308 428.055 13.772 428.871 14.7C429.687 15.628 430.095 16.988 430.095 18.78V25.5H427.023V19.068C427.023 18.044 426.815 17.26 426.399 16.716C425.983 16.172 425.335 15.9 424.455 15.9C423.591 15.9 422.879 16.204 422.319 16.812C421.775 17.42 421.503 18.268 421.503 19.356V25.5H418.431Z" fill="white"/>
</svg>
