<svg width="346" height="33" viewBox="0 0 346 33" fill="none" xmlns="http://www.w3.org/2000/svg">
<rect width="346" height="33" rx="8" fill="#6E4B93"/>
<path d="M12.4147 25.5L13.3027 21.3H9.84669V18.54H13.9027L14.6467 15.036H11.1187V12.276H15.2467L16.1347 8.148H19.0147L18.1267 12.276H22.6867L23.5747 8.148H26.4547L25.5907 12.276H28.7107V15.036H24.9907L24.2467 18.54H27.4387V21.3H23.6467L22.7587 25.5H19.8547L20.7667 21.3H16.2067L15.3187 25.5H12.4147ZM16.7827 18.54H21.3427L22.1107 15.036H17.5507L16.7827 18.54ZM36.2071 25.5L30.0631 8.7H33.3511L38.1031 22.356L42.8791 8.7H46.1191L39.9751 25.5H36.2071ZM49.7004 11.748C49.1404 11.748 48.6764 11.58 48.3084 11.244C47.9564 10.908 47.7804 10.484 47.7804 9.972C47.7804 9.46 47.9564 9.044 48.3084 8.724C48.6764 8.388 49.1404 8.22 49.7004 8.22C50.2604 8.22 50.7164 8.388 51.0684 8.724C51.4364 9.044 51.6204 9.46 51.6204 9.972C51.6204 10.484 51.4364 10.908 51.0684 11.244C50.7164 11.58 50.2604 11.748 49.7004 11.748ZM48.1644 25.5V13.596H51.2364V25.5H48.1644ZM59.3628 25.788C58.3068 25.788 57.3788 25.62 56.5788 25.284C55.7788 24.932 55.1388 24.452 54.6588 23.844C54.1788 23.236 53.8908 22.532 53.7948 21.732H56.8908C56.9868 22.196 57.2428 22.596 57.6588 22.932C58.0908 23.252 58.6428 23.412 59.3148 23.412C59.9868 23.412 60.4748 23.276 60.7788 23.004C61.0988 22.732 61.2588 22.42 61.2588 22.068C61.2588 21.556 61.0348 21.212 60.5868 21.036C60.1388 20.844 59.5148 20.66 58.7148 20.484C58.2028 20.372 57.6828 20.236 57.1548 20.076C56.6268 19.916 56.1388 19.716 55.6908 19.476C55.2588 19.22 54.9068 18.9 54.6348 18.516C54.3628 18.116 54.2268 17.628 54.2268 17.052C54.2268 15.996 54.6428 15.108 55.4748 14.388C56.3228 13.668 57.5068 13.308 59.0268 13.308C60.4348 13.308 61.5548 13.636 62.3868 14.292C63.2348 14.948 63.7388 15.852 63.8988 17.004H60.9948C60.8188 16.124 60.1548 15.684 59.0028 15.684C58.4268 15.684 57.9788 15.796 57.6588 16.02C57.3548 16.244 57.2028 16.524 57.2028 16.86C57.2028 17.212 57.4348 17.492 57.8988 17.7C58.3628 17.908 58.9788 18.1 59.7468 18.276C60.5788 18.468 61.3388 18.684 62.0268 18.924C62.7308 19.148 63.2908 19.492 63.7068 19.956C64.1228 20.404 64.3308 21.052 64.3308 21.9C64.3468 22.636 64.1548 23.3 63.7548 23.892C63.3548 24.484 62.7788 24.948 62.0268 25.284C61.2748 25.62 60.3868 25.788 59.3628 25.788ZM71.5162 25.788C70.0282 25.788 68.8762 25.324 68.0602 24.396C67.2602 23.468 66.8602 22.108 66.8602 20.316V13.596H69.9082V20.028C69.9082 21.052 70.1162 21.836 70.5322 22.38C70.9482 22.924 71.6042 23.196 72.5002 23.196C73.3482 23.196 74.0442 22.892 74.5882 22.284C75.1482 21.676 75.4282 20.828 75.4282 19.74V13.596H78.5002V25.5H75.7882L75.5482 23.484C75.1802 24.188 74.6442 24.748 73.9402 25.164C73.2522 25.58 72.4442 25.788 71.5162 25.788ZM85.7578 25.788C84.7338 25.788 83.8938 25.628 83.2378 25.308C82.5818 24.972 82.0938 24.532 81.7738 23.988C81.4538 23.444 81.2938 22.844 81.2938 22.188C81.2938 21.084 81.7258 20.188 82.5898 19.5C83.4538 18.812 84.7498 18.468 86.4778 18.468H89.5018V18.18C89.5018 17.364 89.2698 16.764 88.8058 16.38C88.3418 15.996 87.7658 15.804 87.0778 15.804C86.4538 15.804 85.9098 15.956 85.4458 16.26C84.9818 16.548 84.6938 16.98 84.5818 17.556H81.5818C81.6618 16.692 81.9498 15.94 82.4458 15.3C82.9578 14.66 83.6138 14.172 84.4138 13.836C85.2138 13.484 86.1098 13.308 87.1018 13.308C88.7978 13.308 90.1338 13.732 91.1098 14.58C92.0858 15.428 92.5738 16.628 92.5738 18.18V25.5H89.9578L89.6698 23.58C89.3178 24.22 88.8218 24.748 88.1818 25.164C87.5578 25.58 86.7498 25.788 85.7578 25.788ZM86.4538 23.388C87.3338 23.388 88.0138 23.1 88.4938 22.524C88.9898 21.948 89.3018 21.236 89.4298 20.388H86.8138C85.9978 20.388 85.4138 20.54 85.0618 20.844C84.7098 21.132 84.5338 21.492 84.5338 21.924C84.5338 22.388 84.7098 22.748 85.0618 23.004C85.4138 23.26 85.8778 23.388 86.4538 23.388ZM95.5053 25.5V8.22H98.5773V25.5H95.5053ZM103.372 11.748C102.812 11.748 102.348 11.58 101.98 11.244C101.628 10.908 101.452 10.484 101.452 9.972C101.452 9.46 101.628 9.044 101.98 8.724C102.348 8.388 102.812 8.22 103.372 8.22C103.932 8.22 104.388 8.388 104.74 8.724C105.108 9.044 105.292 9.46 105.292 9.972C105.292 10.484 105.108 10.908 104.74 11.244C104.388 11.58 103.932 11.748 103.372 11.748ZM101.836 25.5V13.596H104.908V25.5H101.836ZM107.347 25.5V23.028L113.419 16.14H107.419V13.596H116.923V16.068L110.755 22.956H117.043V25.5H107.347ZM125.383 25.788C124.183 25.788 123.119 25.532 122.191 25.02C121.263 24.508 120.535 23.788 120.007 22.86C119.479 21.932 119.215 20.86 119.215 19.644C119.215 18.412 119.471 17.316 119.983 16.356C120.511 15.396 121.231 14.652 122.143 14.124C123.071 13.58 124.159 13.308 125.407 13.308C126.575 13.308 127.607 13.564 128.503 14.076C129.399 14.588 130.095 15.292 130.591 16.188C131.103 17.068 131.359 18.052 131.359 19.14C131.359 19.316 131.351 19.5 131.335 19.692C131.335 19.884 131.327 20.084 131.311 20.292H122.263C122.327 21.22 122.647 21.948 123.223 22.476C123.815 23.004 124.527 23.268 125.359 23.268C125.983 23.268 126.503 23.132 126.919 22.86C127.351 22.572 127.671 22.204 127.879 21.756H130.999C130.775 22.508 130.399 23.196 129.871 23.82C129.359 24.428 128.719 24.908 127.951 25.26C127.199 25.612 126.343 25.788 125.383 25.788ZM125.407 15.804C124.655 15.804 123.991 16.02 123.415 16.452C122.839 16.868 122.471 17.508 122.311 18.372H128.239C128.191 17.588 127.903 16.964 127.375 16.5C126.847 16.036 126.191 15.804 125.407 15.804ZM144.966 25.5C143.718 25.5 142.718 25.196 141.966 24.588C141.214 23.98 140.838 22.9 140.838 21.348V16.164H138.798V13.596H140.838L141.198 10.404H143.91V13.596H147.126V16.164H143.91V21.372C143.91 21.948 144.03 22.348 144.27 22.572C144.526 22.78 144.958 22.884 145.566 22.884H147.054V25.5H144.966ZM149.763 25.5V8.22H152.835V15.42C153.235 14.764 153.771 14.252 154.443 13.884C155.131 13.5 155.915 13.308 156.795 13.308C158.267 13.308 159.403 13.772 160.203 14.7C161.019 15.628 161.427 16.988 161.427 18.78V25.5H158.379V19.068C158.379 18.044 158.171 17.26 157.755 16.716C157.355 16.172 156.715 15.9 155.835 15.9C154.971 15.9 154.251 16.204 153.675 16.812C153.115 17.42 152.835 18.268 152.835 19.356V25.5H149.763ZM170.149 25.788C168.949 25.788 167.885 25.532 166.957 25.02C166.029 24.508 165.301 23.788 164.773 22.86C164.245 21.932 163.981 20.86 163.981 19.644C163.981 18.412 164.237 17.316 164.749 16.356C165.277 15.396 165.997 14.652 166.909 14.124C167.837 13.58 168.925 13.308 170.173 13.308C171.341 13.308 172.373 13.564 173.269 14.076C174.165 14.588 174.861 15.292 175.357 16.188C175.869 17.068 176.125 18.052 176.125 19.14C176.125 19.316 176.117 19.5 176.101 19.692C176.101 19.884 176.093 20.084 176.077 20.292H167.029C167.093 21.22 167.413 21.948 167.989 22.476C168.581 23.004 169.293 23.268 170.125 23.268C170.749 23.268 171.269 23.132 171.685 22.86C172.117 22.572 172.437 22.204 172.645 21.756H175.765C175.541 22.508 175.165 23.196 174.637 23.82C174.125 24.428 173.485 24.908 172.717 25.26C171.965 25.612 171.109 25.788 170.149 25.788ZM170.173 15.804C169.421 15.804 168.757 16.02 168.181 16.452C167.605 16.868 167.237 17.508 167.077 18.372H173.005C172.957 17.588 172.669 16.964 172.141 16.5C171.613 16.036 170.957 15.804 170.173 15.804ZM183.419 25.5L189.563 8.7H193.019L199.163 25.5H195.899L194.555 21.612H188.003L186.635 25.5H183.419ZM188.843 19.212H193.715L191.267 12.228L188.843 19.212ZM206.525 25.788C205.309 25.788 204.237 25.524 203.309 24.996C202.381 24.468 201.645 23.732 201.101 22.788C200.573 21.844 200.309 20.764 200.309 19.548C200.309 18.332 200.573 17.252 201.101 16.308C201.645 15.364 202.381 14.628 203.309 14.1C204.237 13.572 205.309 13.308 206.525 13.308C208.045 13.308 209.325 13.708 210.365 14.508C211.405 15.292 212.069 16.38 212.357 17.772H209.117C208.957 17.196 208.637 16.748 208.157 16.428C207.693 16.092 207.141 15.924 206.501 15.924C205.653 15.924 204.933 16.244 204.341 16.884C203.749 17.524 203.453 18.412 203.453 19.548C203.453 20.684 203.749 21.572 204.341 22.212C204.933 22.852 205.653 23.172 206.501 23.172C207.141 23.172 207.693 23.012 208.157 22.692C208.637 22.372 208.957 21.916 209.117 21.324H212.357C212.069 22.668 211.405 23.748 210.365 24.564C209.325 25.38 208.045 25.788 206.525 25.788ZM215.083 25.5V8.22H218.155V15.42C218.555 14.764 219.091 14.252 219.763 13.884C220.451 13.5 221.235 13.308 222.115 13.308C223.587 13.308 224.723 13.772 225.523 14.7C226.339 15.628 226.747 16.988 226.747 18.78V25.5H223.699V19.068C223.699 18.044 223.491 17.26 223.075 16.716C222.675 16.172 222.035 15.9 221.155 15.9C220.291 15.9 219.571 16.204 218.995 16.812C218.435 17.42 218.155 18.268 218.155 19.356V25.5H215.083ZM231.341 11.748C230.781 11.748 230.317 11.58 229.949 11.244C229.597 10.908 229.421 10.484 229.421 9.972C229.421 9.46 229.597 9.044 229.949 8.724C230.317 8.388 230.781 8.22 231.341 8.22C231.901 8.22 232.357 8.388 232.709 8.724C233.077 9.044 233.261 9.46 233.261 9.972C233.261 10.484 233.077 10.908 232.709 11.244C232.357 11.58 231.901 11.748 231.341 11.748ZM229.805 25.5V13.596H232.877V25.5H229.805ZM241.867 25.788C240.667 25.788 239.603 25.532 238.675 25.02C237.747 24.508 237.019 23.788 236.491 22.86C235.963 21.932 235.699 20.86 235.699 19.644C235.699 18.412 235.955 17.316 236.467 16.356C236.995 15.396 237.715 14.652 238.627 14.124C239.555 13.58 240.643 13.308 241.891 13.308C243.059 13.308 244.091 13.564 244.987 14.076C245.883 14.588 246.579 15.292 247.075 16.188C247.587 17.068 247.843 18.052 247.843 19.14C247.843 19.316 247.835 19.5 247.819 19.692C247.819 19.884 247.811 20.084 247.795 20.292H238.747C238.811 21.22 239.131 21.948 239.707 22.476C240.299 23.004 241.011 23.268 241.843 23.268C242.467 23.268 242.987 23.132 243.403 22.86C243.835 22.572 244.155 22.204 244.363 21.756H247.483C247.259 22.508 246.883 23.196 246.355 23.82C245.843 24.428 245.203 24.908 244.435 25.26C243.683 25.612 242.827 25.788 241.867 25.788ZM241.891 15.804C241.139 15.804 240.475 16.02 239.899 16.452C239.323 16.868 238.955 17.508 238.795 18.372H244.723C244.675 17.588 244.387 16.964 243.859 16.5C243.331 16.036 242.675 15.804 241.891 15.804ZM253.174 25.5L248.806 13.596H252.022L255.046 22.596L258.07 13.596H261.286L256.894 25.5H253.174ZM268.422 25.788C267.222 25.788 266.158 25.532 265.23 25.02C264.302 24.508 263.574 23.788 263.046 22.86C262.518 21.932 262.254 20.86 262.254 19.644C262.254 18.412 262.51 17.316 263.022 16.356C263.55 15.396 264.27 14.652 265.182 14.124C266.11 13.58 267.198 13.308 268.446 13.308C269.614 13.308 270.646 13.564 271.542 14.076C272.438 14.588 273.134 15.292 273.63 16.188C274.142 17.068 274.398 18.052 274.398 19.14C274.398 19.316 274.39 19.5 274.374 19.692C274.374 19.884 274.366 20.084 274.35 20.292H265.302C265.366 21.22 265.686 21.948 266.262 22.476C266.854 23.004 267.566 23.268 268.398 23.268C269.022 23.268 269.542 23.132 269.958 22.86C270.39 22.572 270.71 22.204 270.918 21.756H274.038C273.814 22.508 273.438 23.196 272.91 23.82C272.398 24.428 271.758 24.908 270.99 25.26C270.238 25.612 269.382 25.788 268.422 25.788ZM268.446 15.804C267.694 15.804 267.03 16.02 266.454 16.452C265.878 16.868 265.51 17.508 265.35 18.372H271.278C271.23 17.588 270.942 16.964 270.414 16.5C269.886 16.036 269.23 15.804 268.446 15.804ZM276.982 25.5V13.596H279.694L279.958 15.204C280.342 14.628 280.846 14.172 281.47 13.836C282.11 13.484 282.846 13.308 283.678 13.308C285.518 13.308 286.822 14.02 287.59 15.444C288.022 14.788 288.598 14.268 289.318 13.884C290.054 13.5 290.854 13.308 291.718 13.308C293.27 13.308 294.462 13.772 295.294 14.7C296.126 15.628 296.542 16.988 296.542 18.78V25.5H293.47V19.068C293.47 18.044 293.27 17.26 292.87 16.716C292.486 16.172 291.886 15.9 291.07 15.9C290.238 15.9 289.566 16.204 289.054 16.812C288.558 17.42 288.31 18.268 288.31 19.356V25.5H285.238V19.068C285.238 18.044 285.038 17.26 284.638 16.716C284.238 16.172 283.622 15.9 282.79 15.9C281.974 15.9 281.31 16.204 280.798 16.812C280.302 17.42 280.054 18.268 280.054 19.356V25.5H276.982ZM305.242 25.788C304.042 25.788 302.978 25.532 302.05 25.02C301.122 24.508 300.394 23.788 299.866 22.86C299.338 21.932 299.074 20.86 299.074 19.644C299.074 18.412 299.33 17.316 299.842 16.356C300.37 15.396 301.09 14.652 302.002 14.124C302.93 13.58 304.018 13.308 305.266 13.308C306.434 13.308 307.466 13.564 308.362 14.076C309.258 14.588 309.954 15.292 310.45 16.188C310.962 17.068 311.218 18.052 311.218 19.14C311.218 19.316 311.21 19.5 311.194 19.692C311.194 19.884 311.186 20.084 311.17 20.292H302.122C302.186 21.22 302.506 21.948 303.082 22.476C303.674 23.004 304.386 23.268 305.218 23.268C305.842 23.268 306.362 23.132 306.778 22.86C307.21 22.572 307.53 22.204 307.738 21.756H310.858C310.634 22.508 310.258 23.196 309.73 23.82C309.218 24.428 308.578 24.908 307.81 25.26C307.058 25.612 306.202 25.788 305.242 25.788ZM305.266 15.804C304.514 15.804 303.85 16.02 303.274 16.452C302.698 16.868 302.33 17.508 302.17 18.372H308.098C308.05 17.588 307.762 16.964 307.234 16.5C306.706 16.036 306.05 15.804 305.266 15.804ZM313.802 25.5V13.596H316.514L316.754 15.612C317.122 14.908 317.65 14.348 318.338 13.932C319.042 13.516 319.866 13.308 320.81 13.308C322.282 13.308 323.426 13.772 324.242 14.7C325.058 15.628 325.466 16.988 325.466 18.78V25.5H322.394V19.068C322.394 18.044 322.186 17.26 321.77 16.716C321.354 16.172 320.706 15.9 319.826 15.9C318.962 15.9 318.25 16.204 317.69 16.812C317.146 17.42 316.874 18.268 316.874 19.356V25.5H313.802ZM333.708 25.5C332.46 25.5 331.46 25.196 330.708 24.588C329.956 23.98 329.58 22.9 329.58 21.348V16.164H327.54V13.596H329.58L329.94 10.404H332.652V13.596H335.868V16.164H332.652V21.372C332.652 21.948 332.772 22.348 333.012 22.572C333.268 22.78 333.7 22.884 334.308 22.884H335.796V25.5H333.708Z" fill="white"/>
</svg>
